<?xml version="1.0" encoding="utf-8"?>
<!-- Generator: Adobe Illustrator 24.3.0, SVG Export Plug-In . SVG Version: 6.00 Build 0)  -->
<!DOCTYPE svg PUBLIC "-//W3C//DTD SVG 1.1//EN" "http://www.w3.org/Graphics/SVG/1.1/DTD/svg11.dtd" [
	<!ENTITY ns_extend "http://ns.adobe.com/Extensibility/1.0/">
	<!ENTITY ns_ai "http://ns.adobe.com/AdobeIllustrator/10.0/">
	<!ENTITY ns_graphs "http://ns.adobe.com/Graphs/1.0/">
	<!ENTITY ns_vars "http://ns.adobe.com/Variables/1.0/">
	<!ENTITY ns_imrep "http://ns.adobe.com/ImageReplacement/1.0/">
	<!ENTITY ns_sfw "http://ns.adobe.com/SaveForWeb/1.0/">
	<!ENTITY ns_custom "http://ns.adobe.com/GenericCustomNamespace/1.0/">
	<!ENTITY ns_adobe_xpath "http://ns.adobe.com/XPath/1.0/">
]>
<svg version="1.1" id="Capa_1" xmlns:x="&ns_extend;" xmlns:i="&ns_ai;" xmlns:graph="&ns_graphs;"
	 xmlns="http://www.w3.org/2000/svg" xmlns:xlink="http://www.w3.org/1999/xlink" x="0px" y="0px" viewBox="0 0 551 150"
	 style="enable-background:new 0 0 551 150;" xml:space="preserve">
<style type="text/css">
	.st0{fill:#CDD325;}
	.st1{fill:#006CB0;}
</style>
<metadata>
	<sfw  xmlns="&ns_sfw;">
		<slices></slices>
		<sliceSourceBounds  bottomLeftOrigin="true" height="144" width="543.7" x="-70.4" y="-147"></sliceSourceBounds>
	</sfw>
</metadata>
<g>
	<path class="st0" d="M458.7,3c0.9,0,1.7,0,2.6,0c0.9,0,1.8,0,2.8,0c3,0,6.1,0,9.1,0c2.1,0,4.2,0,6.3,0c4.4,0,8.8,0,13.2,0
		c5.7,0,11.3,0,17,0c4.3,0,8.7,0,13,0c2.1,0,4.2,0,6.3,0c2.9,0,5.8,0,8.7,0c1.3,0,1.3,0,2.6,0c5.9,0,5.9,0,7,1.1
		c0.1,2.9,0.1,5.8,0.1,8.8c0,1.4,0,1.4,0,2.8c0,3.1,0,6.1,0,9.2c0,2.1,0,4.2,0,6.4c0,4.4,0,8.9,0,13.3c0,5.7,0,11.4,0,17.1
		c0,4.4,0,8.8,0,13.1c0,2.1,0,4.2,0,6.3c0,2.9,0,5.9,0,8.8c0,0.9,0,1.8,0,2.7c0,6,0,6-1.1,7.1c-2.9,0.1-5.8,0.1-8.8,0.1
		c-1.4,0-1.4,0-2.8,0c-3.1,0-6.1,0-9.2,0c-2.1,0-4.2,0-6.4,0c-4.4,0-8.9,0-13.3,0c-5.7,0-11.4,0-17.1,0c-4.4,0-8.8,0-13.1,0
		c-2.1,0-4.2,0-6.3,0c-2.9,0-5.9,0-8.8,0c-0.9,0-1.8,0-2.7,0c-6,0-6,0-7.1-1.1c-0.1-2.9-0.1-5.8-0.1-8.7c0-0.9,0-1.8,0-2.8
		c0-3,0-6.1,0-9.1c0-2.1,0-4.2,0-6.3c0-4.4,0-8.8,0-13.2c0-5.6,0-11.3,0-16.9c0-4.3,0-8.7,0-13c0-2.1,0-4.2,0-6.3c0-2.9,0-5.8,0-8.7
		c0-0.9,0-1.7,0-2.6C450.4,4.1,451.4,3,458.7,3z"/>
	<path class="st1" d="M395.9,45c8,7.6,10.5,17.3,10.9,28.1c0.1,4.5,0.1,9.1,0.1,13.6c0,1.7,0,3.3,0,5c0,3.5,0,7,0,10.5
		c0,4.5,0,8.9,0,13.4c0,3.4,0,6.9,0,10.3c0,1.7,0,3.3,0,5c0,2.3,0,4.6,0,6.9c0,0.7,0,1.4,0,2.1c0,4.7,0,4.7-2.2,6.8
		c-2.3,0.2-2.3,0.2-5.1,0.2c-1,0-2,0-3.1,0c-1.1,0-2.1,0-3.2,0c-1.6,0-1.6,0-3.2,0c-8,0-8,0-10.1-1.1c-0.6-2-0.6-2-1.1-4.4
		c-0.2-0.8-0.3-1.6-0.5-2.4c-0.1-0.6-0.2-1.2-0.4-1.8c-2,1-3.9,2-5.8,3c-13,7.1-26.5,7.9-40.7,4.6c-8.5-2.6-14.1-8-18.3-15.6
		c-3-8.9-2.3-20.5,1.4-29c4.4-7.8,11-13.4,19.6-16.1c1.4-0.4,2.8-0.7,4.3-1.1c0.8-0.2,1.5-0.4,2.3-0.6c7.1-1.8,14.3-3,21.6-4.2
		c4.7-0.8,8.7-1.7,12.8-4.2c1.5-3.1,1.5-6.2,1-9.6c-4-4.8-9.8-5.5-15.7-6c-5.5,0.5-10.3,1.5-14.3,5.4c-1.6,2.5-1.6,2.5-2.7,5
		c-1.7,2.3-1.7,2.3-4.3,2.8c-1,0-2,0-3.1-0.1c-1.1,0-2.2,0-3.4,0c-1.7-0.1-1.7-0.1-3.5-0.1c-1.2,0-2.3,0-3.5,0
		c-8.6-0.1-8.6-0.1-9.7-1.3c-0.9-7.9,1.8-15,6.4-21.4C338.3,31.3,377.8,30.1,395.9,45z M372.6,95.3c-3.7,1.3-7.4,2.2-11.2,3
		c-10.9,2.1-10.9,2.1-19.8,8.3c-1.4,4.2-1.7,8-1,12.3c1.8,3.5,3.9,5.4,7.7,6.7c8.1,0.9,14.4,0,21-4.8c5.1-4.7,8.4-9,8.8-16
		c0-1.3,0-2.6-0.1-3.9c0-0.7,0-1.3,0-2c0-1.6-0.1-3.2-0.1-4.9C375.7,94,375.7,94,372.6,95.3z"/>
	<path class="st1" d="M187.1,44.3c11.3,9.5,17.2,22.7,18.7,37.4c0.2,5.4,0.3,10.8,0,16.3c-1.8,1.8-5,1.1-7.4,1.2c-0.7,0-1.3,0-2,0
		c-2.2,0-4.5,0.1-6.7,0.1c-1.5,0-3.1,0-4.6,0.1c-4.1,0.1-8.1,0.1-12.2,0.1c-4.1,0-8.3,0.1-12.4,0.2c-8.1,0.1-16.3,0.2-24.4,0.3
		c0.1,1.2,0.3,2.4,0.4,3.7c0.1,0.7,0.2,1.4,0.2,2.1c0.7,4.9,3.2,9.1,7,12.3c5.5,3.9,10.6,5.4,17.4,4.7c5.4-1.2,9.9-3.3,13-8
		c2.2-2.3,2.2-2.3,5.2-2.8c1.2,0,2.4,0.1,3.6,0.1c0.6,0,1.3,0,1.9,0c2,0,4,0.1,6,0.1c1.4,0,2.7,0,4.1,0.1c3.3,0.1,6.7,0.1,10,0.2
		c-1.7,10.9-7.2,19-16,25.5c-13.6,9.1-29,10.4-44.9,7.7c-12.6-2.8-22.3-8.2-29.4-19.1c-9.1-16.3-11.1-37-6.6-55
		c3.8-13,9.6-22.3,21.4-29.4C146.5,33.1,171.1,32.1,187.1,44.3z M142.8,63.1c-3.2,3.6-5.4,7.3-6.8,11.9c0.3,1.6,0.6,3.2,1,4.8
		c12.9,0,25.9,0,39.2,0c1.3-5.4-0.3-8.6-2.9-13.4c-4-4.9-9.2-7.3-15.3-8.6C152.3,57.8,147.1,59.4,142.8,63.1z"/>
	<path class="st1" d="M292.8,44.4c5.8,5.2,9.5,11.3,10.5,19.1c0.1,2.2,0.1,4.5,0,6.7c-1,1-1,1-3.4,1.1c-1.1,0-2.2,0-3.3,0
		c-1.2,0-2.3,0-3.5,0c-1.2,0-2.4,0-3.7,0c-1.2,0-2.5,0-3.7,0c-3,0-6.1,0-9.1,0c-0.5-1-0.5-1-1-2c-0.4-0.9-0.8-1.7-1.3-2.6
		c-0.4-0.9-0.8-1.7-1.3-2.6c-1.2-2.5-1.2-2.5-3.7-4.3c-7.5-2.1-16-3-23.4,0.1c-2.4,2-2.8,2.5-3.3,5.7c0.2,2.9,0.2,2.9,1.9,5
		c7.2,5.2,17.5,6.8,26,9.3c28.2,8.2,28.2,8.2,33.8,17.3c4.2,8.6,4.3,18.8,1.3,27.7c-3.6,8.6-9.3,13-17.5,17.2
		c-7.1,2.6-14.4,4.5-22,4.8c-1.4,0.1-1.4,0.1-2.9,0.1c-16.5,0.3-32.4-2.6-44.8-14.2c-5.7-6.1-7.9-12.1-7.8-20.4c4-0.1,8-0.2,12-0.3
		c1.4,0,2.7-0.1,4.1-0.1c2-0.1,3.9-0.1,5.9-0.1c1.2,0,2.4-0.1,3.6-0.1c3.1,0.7,3.1,0.7,5.2,3.4c0.6,1,1.1,2,1.7,3c5.7,4.3,10,5,17,5
		c0.8,0,1.5,0,2.3,0.1c5.2,0,8.7-0.8,13.3-3.2c2.3-1.9,2.3-1.9,2.1-5.2c0-3.4,0-3.4-1.1-6.3c-3.6-1.8-7.6-2.7-11.5-3.8
		c-1.3-0.4-2.6-0.7-4-1.1c-2-0.6-4.1-1.1-6.1-1.7c-31.4-8.4-31.4-8.4-38.7-20.9c-3.8-7.5-4-15.9-2.3-24.1c2.7-7.8,8.5-13,15.8-16.7
		C248.6,32.9,276,32.1,292.8,44.4z"/>
	<path class="st1" d="M88.9,46.9c6.7,6.3,11.5,15,12.6,24.2c-0.3,1.9-0.6,3.8-1,5.7c-3.8,0.1-7.5,0.2-11.3,0.3
		c-1.9,0-3.8,0.1-5.7,0.2c-1.2,0-2.4,0-3.6,0c-1.1,0-2.2,0.1-3.4,0.1c-2.8-0.5-2.8-0.5-4.5-2.8c-0.4-0.8-0.8-1.7-1.2-2.6
		c-3.1-6.3-5.7-8.7-12.4-11.2c-6-0.7-11-0.3-16.3,2.6c-7.4,7.2-8.7,15.6-8.8,25.5c0,10.8,1.9,20.4,9.2,28.6c3,2.8,5.9,4.1,10,4.4
		c6.5-0.4,12-3,16.4-7.8c0.9-2.2,1.6-4.4,2.3-6.8c0.6-1.8,0.6-1.8,2.5-2.8c4.3-0.2,8.6-0.2,12.9-0.2c1.2,0,2.4,0,3.7,0
		c1.2,0,2.3,0,3.5,0c1.6,0,1.6,0,3.2,0c2.6,0.2,2.6,0.2,4.5,2.1c-0.4,11.5-7.2,21.1-15.3,28.7c-11,9-25.1,12.7-39.2,11.5
		c-13.2-1.8-24.2-6.5-32.5-17.2C3.6,111.8,1.3,90.4,5.9,70.2c3.5-12.5,9-21.7,20.1-28.7C45.4,31.4,71.6,33.6,88.9,46.9z"/>
	<path class="st1" d="M421.9,3.1c1.2,0,2.3,0,3.5,0c1.2,0,2.4,0,3.7,0c1.8,0,1.8,0,3.7,0c1.7,0,1.7,0,3.5,0c1.1,0,2.1,0,3.2,0
		c2.5,0.1,2.5,0.1,3.4,1.1c0.1,1.8,0.1,3.7,0.1,5.5c0,1.2,0,2.4,0,3.6c0,1.3,0,2.7,0,4c0,1.4,0,2.8,0,4.2c0,3.8,0,7.6,0,11.4
		c0,4,0,7.9,0,11.9c0,6.7,0,13.3,0,20c0,7.7,0,15.4,0,23.1c0,6.6,0,13.2,0,19.8c0,3.9,0,7.9,0,11.8c0,3.7,0,7.4,0,11.1
		c0,1.4,0,2.7,0,4.1c0,1.9,0,3.7,0,5.6c0,1,0,2.1,0,3.2c-0.1,2.3-0.1,2.3-1.1,3.3c-1.9,0.1-3.8,0.1-5.7,0.1c-1.2,0-2.3,0-3.5,0
		c-1.2,0-2.4,0-3.7,0c-1.8,0-1.8,0-3.7,0c-1.7,0-1.7,0-3.5,0c-1.1,0-2.1,0-3.2,0c-2.5-0.1-2.5-0.1-3.4-1.1c-0.1-1.8-0.1-3.7-0.1-5.5
		c0-1.2,0-2.4,0-3.6c0-1.3,0-2.7,0-4c0-1.4,0-2.8,0-4.2c0-3.8,0-7.6,0-11.4c0-4,0-7.9,0-11.9c0-6.7,0-13.3,0-20c0-7.7,0-15.4,0-23.1
		c0-6.6,0-13.2,0-19.8c0-3.9,0-7.9,0-11.8c0-3.7,0-7.4,0-11.1c0-1.4,0-2.7,0-4.1c0-1.9,0-3.7,0-5.6c0-1,0-2.1,0-3.2
		C415.4,2,418,3.1,421.9,3.1z"/>
	<path class="st1" d="M537,110.5c3.3,2.2,5.1,4.3,7.4,7.5c0,1.3,0,2.5,0,3.8c-5.1,0.3-5.1,0.3-7.7,0c-1.3-1.3-2.6-2.5-3.8-3.8
		c-4.5-0.6-4.5-0.6-8.5,1.3c-2.1,3-2.2,5-2.2,8.6c0,1.4,0,1.4,0,2.8c0.2,2.7,0.7,4.2,2.1,6.4c2.9,1.5,5.4,1.2,8.6,1
		c1.9-1.8,1.9-1.8,2.9-3.8c-1.9-0.3-3.8-0.6-5.7-1c0-2.2,0-4.4,0-6.7c4.7,0,9.5,0,14.3,0c0,6.3,0,12.6,0,19.1c-3.2,0-6.4,0-9.6,0
		c-0.9,0.5-0.9,0.5-1.9,1c-5.2,0.6-9.5,0.3-13.9-2.5c-3.6-3.3-6-8.1-6.4-13c-0.1-7.1,0.8-12.3,5.3-17.9
		C523.7,108.7,530,108.1,537,110.5z"/>
	<path class="st1" d="M473.4,110.6c4.4,2.5,6.2,4.9,8.1,9.6c1.4,7.2,1.7,14.4-2.2,20.9c-3,3.3-6.2,5.5-10.7,6
		c-5.9,0.2-10.4-0.4-15.1-4.1c-4-4.4-4.2-8.6-4.2-14.4c0-0.7,0-1.3,0-2c0.1-5.2,1.2-9.1,4.8-12.9
		C460.2,108.7,465.9,108.2,473.4,110.6z M459.2,119.9c-2.4,3.8-2.5,8.1-1.9,12.4c1.5,4.1,1.5,4.1,4.8,6.7c5.7,0.7,5.7,0.7,10.5-2.3
		c2.8-4,2.6-8.3,1.9-13c-0.8-2.9-0.8-2.9-2.9-4.8C466.6,116.7,463.8,116.7,459.2,119.9z"/>
	<path class="st1" d="M484.1,111.3c7.7,0,7.7,0,9.7,1.8c0.5,0.8,1,1.6,1.5,2.5c0.5,0.9,1.1,1.7,1.6,2.6c0.5,0.9,1,1.7,1.5,2.6
		c0.9,1.5,1.9,3,2.8,4.4c1,1.6,1,1.6,2,3.2c0.3-5.7,0.6-11.4,1-17.2c2.2,0,4.4,0,6.7,0c0,11.4,0,22.7,0,34.4c-6.7,0-6.7,0-8.6-1.8
		c-0.5-0.8-1-1.6-1.5-2.4c-0.5-0.9-1.1-1.7-1.7-2.6c-0.5-0.9-1.1-1.8-1.6-2.8c-0.6-0.9-1.1-1.8-1.7-2.8c-1.4-2.3-2.7-4.5-4-6.8
		c-0.3,6.3-0.6,12.6-1,19.1c-2.2,0-4.4,0-6.7,0C484.1,134.4,484.1,123,484.1,111.3z"/>
</g>
<g>
</g>
<g>
</g>
<g>
</g>
<g>
</g>
<g>
</g>
<g>
</g>
<g>
</g>
<g>
</g>
<g>
</g>
<g>
</g>
<g>
</g>
<g>
</g>
<g>
</g>
<g>
</g>
<g>
</g>
</svg>
